<svg height="800" viewBox="0 0 512 512" width="800" xmlns="http://www.w3.org/2000/svg"><path d="m402.308 131.026c-.043 0-.076 0-.11 0 .051-1.454.11-2.9.11-4.372 0-69.949-56.705-126.654-126.653-126.654-65.518 0-119.432 49.763-125.982 113.563-9.187-2.841-18.953-4.373-29.068-4.373-54.262 0-98.267 43.996-98.267 98.268 0 54.271 44.005 98.267 98.267 98.267h281.702c48.241 0 87.354-39.105 87.354-87.353.001-48.241-39.112-87.346-87.353-87.346z"/><circle cx="370.034" cy="362.889" r="16.715"/><circle cx="258.914" cy="362.889" r="16.715"/><path d="m147.801 379.604c9.221 0 16.707-7.486 16.707-16.716s-7.486-16.715-16.707-16.715c-9.23 0-16.715 7.485-16.715 16.715 0 9.231 7.485 16.716 16.715 16.716z"/><circle cx="320.646" cy="428.151" r="16.715"/><circle cx="209.533" cy="428.151" r="16.715"/><path d="m147.801 478.578c-9.23 0-16.715 7.485-16.715 16.706 0 9.23 7.485 16.716 16.715 16.716s16.716-7.486 16.716-16.716c0-9.221-7.486-16.706-16.716-16.706z"/><path d="m258.922 478.578c-9.23 0-16.716 7.485-16.716 16.706 0 9.23 7.486 16.716 16.716 16.716 9.229 0 16.715-7.486 16.715-16.716 0-9.221-7.486-16.706-16.715-16.706z"/><path d="m370.034 478.578c-9.221 0-16.707 7.485-16.707 16.706 0 9.23 7.486 16.716 16.707 16.716 9.23 0 16.716-7.486 16.716-16.716 0-9.221-7.486-16.706-16.716-16.706z"/></svg>